<svg xmlns="http://www.w3.org/2000/svg" viewBox="0 0 135 40"><path fill="#A6A6A6" d="M130.197 40H4.73C2.12 40 0 37.872 0 35.268V4.726C0 2.12 2.122 0 4.73 0h125.467C132.803 0 135 2.12 135 4.726v30.542c0 2.604-2.197 4.732-4.803 4.732z"/><path d="M134.032 35.268c0 2.116-1.714 3.83-3.834 3.83H4.728c-2.118 0-3.838-1.714-3.838-3.83V4.725C.89 2.61 2.61.89 4.73.89h125.467c2.12 0 3.834 1.72 3.834 3.835l.002 30.543z"/><g fill="#FFF"><path d="M30.128 19.784c-.03-3.223 2.64-4.79 2.76-4.864-1.51-2.203-3.852-2.504-4.675-2.528-1.967-.207-3.875 1.177-4.877 1.177-1.022 0-2.565-1.158-4.228-1.124-2.14.033-4.142 1.272-5.24 3.196-2.266 3.923-.576 9.688 1.595 12.86 1.086 1.553 2.355 3.286 4.016 3.225 1.624-.066 2.23-1.035 4.192-1.035 1.943 0 2.513 1.035 4.207.996 1.743-.027 2.84-1.56 3.89-3.127 1.254-1.778 1.758-3.532 1.778-3.622-.04-.014-3.387-1.292-3.42-5.154zM26.928 10.306c.874-1.093 1.472-2.58 1.306-4.09-1.265.057-2.847.876-3.758 1.945-.806.943-1.526 2.487-1.34 3.94 1.42.105 2.88-.718 3.792-1.794z"/></g><g fill="#FFF"><path d="M54.023 17.18h-2.006l-1.1-3.456h-3.82l-1.048 3.455h-1.956L47.88 5.417h2.34l3.803 11.76zm-3.437-4.905l-.995-3.07C49.488 8.89 49.29 8.15 49 6.987h-.035c-.117.5-.303 1.24-.56 2.216l-.976 3.07h3.16zM63.742 12.833c0 1.443-.39 2.583-1.176 3.42-.7.745-1.572 1.117-2.613 1.117-1.125 0-1.932-.4-2.422-1.204v4.45h-1.884v-9.13c0-.906-.023-1.835-.07-2.788h1.658l.105 1.344h.033c.63-1.012 1.582-1.52 2.86-1.52 1.003 0 1.837.397 2.507 1.188.668.79 1.002 1.832 1.002 3.123zm-1.918.07c0-.826-.188-1.506-.56-2.042-.407-.557-.954-.836-1.64-.836-.465 0-.887.154-1.266.462s-.625.712-.742 1.213c-.06.23-.086.424-.086.575v1.414c0 .616.188 1.136.566 1.56.38.426.87.638 1.475.638.71 0 1.263-.273 1.66-.82.395-.547.594-1.27.594-2.165zM73.497 12.833c0 1.443-.392 2.583-1.177 3.42-.7.745-1.572 1.117-2.613 1.117-1.124 0-1.93-.4-2.422-1.204v4.45H65.4v-9.13c0-.906-.023-1.835-.07-2.788h1.658l.104 1.344h.035c.628-1.012 1.582-1.52 2.86-1.52 1 0 1.836.397 2.506 1.188.67.79 1.004 1.832 1.004 3.123zm-1.92.07c0-.826-.187-1.506-.558-2.042-.41-.557-.956-.836-1.643-.836-.465 0-.887.154-1.265.462-.38.308-.626.712-.742 1.213-.06.23-.087.424-.087.575v1.414c0 .616.188 1.136.567 1.56.377.426.87.638 1.474.638.71 0 1.263-.273 1.657-.82.398-.547.598-1.27.598-2.165zM86.76 13.88c0 1-.35 1.815-1.046 2.444-.766.687-1.834 1.03-3.202 1.03-1.266 0-2.28-.245-3.047-.734l.436-1.57c.827.49 1.734.733 2.725.733.71 0 1.263-.16 1.657-.48.396-.32.594-.747.594-1.282 0-.476-.163-.877-.488-1.203-.326-.326-.867-.628-1.623-.908-2.06-.77-3.09-1.89-3.09-3.37 0-.964.364-1.755 1.092-2.372s1.69-.925 2.89-.925c1.07 0 1.958.186 2.67.558l-.477 1.537c-.666-.36-1.418-.54-2.26-.54-.665 0-1.186.162-1.56.488-.314.29-.472.646-.472 1.064 0 .464.18.848.54 1.15.314.28.884.583 1.71.908 1.012.407 1.758.884 2.233 1.43.48.548.72 1.228.72 2.043zM93.006 10.11H90.93v4.12c0 1.046.366 1.57 1.1 1.57.337 0 .615-.03.838-.087l.052 1.43c-.372.14-.86.21-1.466.21-.744 0-1.326-.227-1.744-.68-.42-.454-.63-1.216-.63-2.286v-4.275h-1.237V8.698h1.238V7.145l1.85-.558v2.11h2.078l-.002 1.414zM102.357 12.87c0 1.302-.373 2.372-1.116 3.21-.778.86-1.813 1.29-3.103 1.29-1.246 0-2.238-.412-2.977-1.238s-1.108-1.867-1.108-3.124c0-1.314.382-2.39 1.144-3.23.763-.836 1.79-1.255 3.08-1.255 1.244 0 2.244.413 3.002 1.24.72.802 1.08 1.838 1.08 3.106zm-1.955.042c0-.777-.168-1.444-.506-2-.396-.673-.96-1.01-1.69-1.01-.758 0-1.333.336-1.73 1.01-.338.556-.506 1.235-.506 2.035 0 .777.168 1.444.506 2 .407.674.98 1.01 1.71 1.01.723 0 1.286-.342 1.692-1.026.35-.568.524-1.24.524-2.018zM108.482 10.356c-.187-.035-.385-.052-.594-.052-.662 0-1.176.25-1.535.75-.313.442-.472 1-.472 1.675v4.45h-1.884v-5.812c0-.978-.02-1.867-.054-2.67h1.642l.07 1.623h.052c.197-.557.512-1.005.94-1.342.42-.303.874-.454 1.362-.454.176 0 .33.012.47.035v1.796h.004zM116.91 12.537c0 .337-.023.623-.07.855h-5.652c.022.837.297 1.478.82 1.92.477.395 1.094.592 1.85.592.838 0 1.6-.133 2.285-.4l.297 1.308c-.803.35-1.75.523-2.844.523-1.314 0-2.348-.387-3.098-1.16-.75-.774-1.126-1.813-1.126-3.116 0-1.28.35-2.345 1.047-3.194.732-.907 1.72-1.36 2.967-1.36 1.22 0 2.146.453 2.773 1.36.5.723.75 1.613.75 2.67zm-1.797-.49c.012-.557-.11-1.04-.366-1.447-.326-.523-.826-.785-1.5-.785-.617 0-1.118.256-1.502.768-.313.408-.5.896-.558 1.466l3.926-.002z"/></g><g fill="#FFF"><path d="M46.313 26.928c.21-.878.363-1.79.468-2.703l1.008.13c-.117.83-.28 1.673-.48 2.503.305-.022.574-.034.797-.034 1.604 0 2.33.843 2.33 2.598 0 1.79-.317 3.384-.75 4.1-.352.57-.76.78-1.51.78-.55 0-1.194-.08-1.697-.197l.07-.947c.456.152 1.03.223 1.428.223.444 0 .632-.07.843-.386.373-.55.62-1.955.62-3.535 0-1.276-.388-1.71-1.394-1.71-.28 0-.608.013-.96.036-.644 2.364-1.533 4.54-2.563 6.026l-.89-.48c.995-1.345 1.86-3.3 2.446-5.465-.81.093-1.65.222-2.388.362l-.176-.938c.832-.142 1.86-.27 2.797-.364zm7.678 4.037l-1.006.246c-.2-1.532-.878-3.276-2.142-4.563l.82-.525c1.358 1.403 2.118 3.345 2.33 4.843zM56.762 30.24c1.17-.82 2.633-1.38 3.886-1.38 1.813 0 2.914.876 2.914 2.386 0 1.873-1.533 3.055-5.173 3.055-.153 0-.364 0-.552-.01l-.21-.948c.28.012.632.023.854.023 2.927 0 4.05-.832 4.05-2.096 0-1.03-.68-1.57-2.095-1.57-1.206 0-2.587.67-3.91 1.815l-.807-.353c0-2.527.27-3.744 1.16-5.02l.923.313c-.82 1.14-1.04 2.205-1.04 3.785zm-.106-5.103l.258-.936c1.626.247 4.084.796 5.243 1.218l-.27.925c-1.053-.41-3.64-1.007-5.23-1.206zM68.264 28.19c.854.48 1.967 1.206 2.752 1.804.713-1.053 1.192-2.235 1.438-3.418h-3.78c-.854 1.357-1.967 2.69-3.055 3.547l-.785-.668c1.627-1.182 3.23-3.486 3.91-5.242l.98.34c-.14.352-.314.713-.515 1.1h3.77l.748.41c-.818 3.77-3.03 6.93-6.447 8.31l-.713-.865c1.557-.573 2.844-1.532 3.826-2.692-.783-.644-1.94-1.416-2.762-1.86l.634-.765zm4.623-4.364c.48.48.854.982 1.23 1.568l-.528.375c-.352-.575-.738-1.103-1.206-1.56l.503-.384zm1.52-.34c.49.492.855.996 1.218 1.592l-.55.363c-.327-.597-.714-1.11-1.183-1.59l.516-.364zM80.434 26.26v-2.023h1.064v2.024h3.064l.89.363c-.29 3.57-1.696 6.344-5.44 7.7l-.645-.91c3.453-1.172 4.693-3.478 4.87-6.18h-6.25v2.69h-1.054V26.26h3.5zM91.255 27.35l-.69.854c-.644-.573-2.05-1.593-3.02-2.106l.655-.843c1.007.585 2.33 1.497 3.055 2.095zm4.507.023l.678.795c-1.604 2.61-4.893 5.104-8.086 6.05l-.527-1.005c3.123-.797 6.377-3.22 7.935-5.84zM106.924 25.723v7.854H98.57v-7.854h8.354zm-1.076 6.845v-5.863H99.62v5.863h6.228zM118.857 28.754v1.076h-9.526v-1.076h9.527zM128.288 30.428l-.68.865c-1.25-.912-3.112-1.954-4.645-2.68V34.3h-1.076V24.237h1.076v3.242c1.662.76 3.827 1.942 5.325 2.95zm-2.726-4.95c.42.434.842 1.018 1.158 1.557l-.516.327c-.28-.526-.727-1.146-1.123-1.557l.482-.328zm1.228-.74c.41.434.843 1.008 1.17 1.546l-.515.327c-.28-.503-.737-1.122-1.135-1.532l.48-.34z"/></g></svg>